<svg id="visual" viewBox="0 0 900 25" width="900" height="25" xmlns="http://www.w3.org/2000/svg" xmlns:xlink="http://www.w3.org/1999/xlink" version="1.1"><path d="M0 4L82 3L164 5L245 6L327 4L409 4L491 4L573 4L655 4L736 4L818 4L900 5L900 0L818 0L736 0L655 0L573 0L491 0L409 0L327 0L245 0L164 0L82 0L0 0Z" fill="#649efb"></path><path d="M0 8L82 5L164 7L245 9L327 7L409 6L491 7L573 5L655 6L736 6L818 6L900 7L900 3L818 2L736 2L655 2L573 2L491 2L409 2L327 2L245 4L164 3L82 1L0 2Z" fill="#5595e8"></path><path d="M0 9L82 7L164 9L245 11L327 9L409 8L491 8L573 9L655 7L736 8L818 7L900 10L900 5L818 4L736 4L655 4L573 3L491 5L409 4L327 5L245 7L164 5L82 3L0 6Z" fill="#488cd4"></path><path d="M0 13L82 11L164 12L245 16L327 11L409 14L491 13L573 13L655 12L736 11L818 10L900 12L900 8L818 5L736 6L655 5L573 7L491 6L409 6L327 7L245 9L164 7L82 5L0 7Z" fill="#3e82c0"></path><path d="M0 20L82 17L164 17L245 22L327 19L409 21L491 19L573 21L655 20L736 21L818 15L900 18L900 10L818 8L736 9L655 10L573 11L491 11L409 12L327 9L245 14L164 10L82 9L0 11Z" fill="#3879ad"></path><path d="M0 26L82 26L164 26L245 26L327 26L409 26L491 26L573 26L655 26L736 26L818 26L900 26L900 16L818 13L736 19L655 18L573 19L491 17L409 19L327 17L245 20L164 15L82 15L0 18Z" fill="#346f9a"></path></svg>