<svg id="visual" viewBox="0 0 400 600" width="400" height="600" xmlns="http://www.w3.org/2000/svg" xmlns:xlink="http://www.w3.org/1999/xlink" version="1.1"><rect x="0" y="0" width="400" height="600" fill="#1c1c1c"></rect><path d="M244 600L199 533L200 467L224 400L222 333L247 267L235 200L220 133L214 67L267 0L400 0L400 67L400 133L400 200L400 267L400 333L400 400L400 467L400 533L400 600Z" fill="#649efb"></path><path d="M235 600L250 533L283 467L282 400L246 333L292 267L257 200L227 133L287 67L250 0L400 0L400 67L400 133L400 200L400 267L400 333L400 400L400 467L400 533L400 600Z" fill="#5797eb"></path><path d="M281 600L252 533L261 467L286 400L296 333L269 267L277 200L287 133L269 67L306 0L400 0L400 67L400 133L400 200L400 267L400 333L400 400L400 467L400 533L400 600Z" fill="#4c8fda"></path><path d="M307 600L286 533L290 467L278 400L280 333L322 267L294 200L304 133L282 67L283 0L400 0L400 67L400 133L400 200L400 267L400 333L400 400L400 467L400 533L400 600Z" fill="#4387ca"></path><path d="M311 600L311 533L329 467L333 400L341 333L327 267L342 200L348 133L343 67L334 0L400 0L400 67L400 133L400 200L400 267L400 333L400 400L400 467L400 533L400 600Z" fill="#3c7fba"></path><path d="M337 600L339 533L341 467L355 400L366 333L351 267L360 200L346 133L332 67L362 0L400 0L400 67L400 133L400 200L400 267L400 333L400 400L400 467L400 533L400 600Z" fill="#3777aa"></path><path d="M383 600L380 533L385 467L376 400L381 333L383 267L358 200L357 133L370 67L357 0L400 0L400 67L400 133L400 200L400 267L400 333L400 400L400 467L400 533L400 600Z" fill="#346f9a"></path></svg>
