<svg id="idkra" viewBox="0 0 900 150" width="900" height="150" xmlns="http://www.w3.org/2000/svg" xmlns:xlink="http://www.w3.org/1999/xlink" version="1.1"><rect x="0" y="0" width="900" height="150" fill="#1c1c1c"></rect><path d="M0 94L10 93C20 92 40 90 60 91.8C80 93.7 100 99.3 120 98.7C140 98 160 91 180 92.7C200 94.3 220 104.7 240 109.3C260 114 280 113 300 106.7C320 100.3 340 88.7 360 85.3C380 82 400 87 420 92.8C440 98.7 460 105.3 480 102.5C500 99.7 520 87.3 540 87.2C560 87 580 99 600 103C620 107 640 103 660 97.8C680 92.7 700 86.3 720 86.7C740 87 760 94 780 99C800 104 820 107 840 103.7C860 100.3 880 90.7 890 85.8L900 81L900 0L890 0C880 0 860 0 840 0C820 0 800 0 780 0C760 0 740 0 720 0C700 0 680 0 660 0C640 0 620 0 600 0C580 0 560 0 540 0C520 0 500 0 480 0C460 0 440 0 420 0C400 0 380 0 360 0C340 0 320 0 300 0C280 0 260 0 240 0C220 0 200 0 180 0C160 0 140 0 120 0C100 0 80 0 60 0C40 0 20 0 10 0L0 0Z" fill="#649efb"></path><path d="M0 91L10 87.2C20 83.3 40 75.7 60 72.7C80 69.7 100 71.3 120 74.2C140 77 160 81 180 84.2C200 87.3 220 89.7 240 88.8C260 88 280 84 300 82.7C320 81.3 340 82.7 360 84.2C380 85.7 400 87.3 420 90.2C440 93 460 97 480 95.2C500 93.3 520 85.7 540 82.5C560 79.3 580 80.7 600 80.2C620 79.7 640 77.3 660 76.8C680 76.3 700 77.7 720 76C740 74.3 760 69.7 780 68.5C800 67.3 820 69.7 840 73.8C860 78 880 84 890 87L900 90L900 0L890 0C880 0 860 0 840 0C820 0 800 0 780 0C760 0 740 0 720 0C700 0 680 0 660 0C640 0 620 0 600 0C580 0 560 0 540 0C520 0 500 0 480 0C460 0 440 0 420 0C400 0 380 0 360 0C340 0 320 0 300 0C280 0 260 0 240 0C220 0 200 0 180 0C160 0 140 0 120 0C100 0 80 0 60 0C40 0 20 0 10 0L0 0Z" fill="#4c8fdb"></path><path d="M0 70L10 67C20 64 40 58 60 58C80 58 100 64 120 63.5C140 63 160 56 180 52.3C200 48.7 220 48.3 240 52.5C260 56.7 280 65.3 300 64.8C320 64.3 340 54.7 360 55.5C380 56.3 400 67.7 420 69.7C440 71.7 460 64.3 480 59.2C500 54 520 51 540 50.5C560 50 580 52 600 51.2C620 50.3 640 46.7 660 46.7C680 46.7 700 50.3 720 52.2C740 54 760 54 780 55.5C800 57 820 60 840 62C860 64 880 65 890 65.5L900 66L900 0L890 0C880 0 860 0 840 0C820 0 800 0 780 0C760 0 740 0 720 0C700 0 680 0 660 0C640 0 620 0 600 0C580 0 560 0 540 0C520 0 500 0 480 0C460 0 440 0 420 0C400 0 380 0 360 0C340 0 320 0 300 0C280 0 260 0 240 0C220 0 200 0 180 0C160 0 140 0 120 0C100 0 80 0 60 0C40 0 20 0 10 0L0 0Z" fill="#3c7fba"></path><path d="M0 27L10 28.2C20 29.3 40 31.7 60 35.3C80 39 100 44 120 43.7C140 43.3 160 37.7 180 38.3C200 39 220 46 240 47.7C260 49.3 280 45.7 300 46.5C320 47.3 340 52.7 360 55.2C380 57.7 400 57.3 420 57.2C440 57 460 57 480 53.3C500 49.7 520 42.3 540 41.5C560 40.7 580 46.3 600 45.8C620 45.3 640 38.7 660 34.5C680 30.3 700 28.7 720 30.8C740 33 760 39 780 43.2C800 47.3 820 49.7 840 51.8C860 54 880 56 890 57L900 58L900 0L890 0C880 0 860 0 840 0C820 0 800 0 780 0C760 0 740 0 720 0C700 0 680 0 660 0C640 0 620 0 600 0C580 0 560 0 540 0C520 0 500 0 480 0C460 0 440 0 420 0C400 0 380 0 360 0C340 0 320 0 300 0C280 0 260 0 240 0C220 0 200 0 180 0C160 0 140 0 120 0C100 0 80 0 60 0C40 0 20 0 10 0L0 0Z" fill="#346f9a"></path><path d="M0 31L10 31.2C20 31.3 40 31.7 60 29.7C80 27.7 100 23.3 120 20.2C140 17 160 15 180 16.2C200 17.3 220 21.7 240 24C260 26.3 280 26.7 300 25C320 23.3 340 19.7 360 19.2C380 18.7 400 21.3 420 22.8C440 24.3 460 24.7 480 24C500 23.3 520 21.7 540 22.7C560 23.7 580 27.3 600 26C620 24.7 640 18.3 660 17.8C680 17.3 700 22.7 720 25.7C740 28.7 760 29.3 780 30.3C800 31.3 820 32.7 840 32C860 31.3 880 28.7 890 27.3L900 26L900 0L890 0C880 0 860 0 840 0C820 0 800 0 780 0C760 0 740 0 720 0C700 0 680 0 660 0C640 0 620 0 600 0C580 0 560 0 540 0C520 0 500 0 480 0C460 0 440 0 420 0C400 0 380 0 360 0C340 0 320 0 300 0C280 0 260 0 240 0C220 0 200 0 180 0C160 0 140 0 120 0C100 0 80 0 60 0C40 0 20 0 10 0L0 0Z" fill="#325e7b"></path></svg>
