<svg id="visual1" viewBox="0 0 900 150" width="900" height="150" xmlns="http://www.w3.org/2000/svg" xmlns:xlink="http://www.w3.org/1999/xlink" version="1.1"><rect x="0" y="0" width="900" height="150" fill="#1c1c1c"></rect><path d="M0 108L8.3 104C16.7 100 33.3 92 50 85.2C66.7 78.3 83.3 72.7 100 71.8C116.7 71 133.3 75 150 71.2C166.7 67.3 183.3 55.7 200 51.2C216.7 46.7 233.3 49.3 250 52.7C266.7 56 283.3 60 300 63.5C316.7 67 333.3 70 350 76.3C366.7 82.7 383.3 92.3 400 89.5C416.7 86.7 433.3 71.3 450 67.2C466.7 63 483.3 70 500 77.8C516.7 85.7 533.3 94.3 550 99.5C566.7 104.7 583.3 106.3 600 106.2C616.7 106 633.3 104 650 101.5C666.7 99 683.3 96 700 93.8C716.7 91.7 733.3 90.3 750 89.2C766.7 88 783.3 87 800 88.8C816.7 90.7 833.3 95.3 850 88.3C866.7 81.3 883.3 62.7 891.7 53.3L900 44L900 151L891.7 151C883.3 151 866.7 151 850 151C833.3 151 816.7 151 800 151C783.3 151 766.7 151 750 151C733.3 151 716.7 151 700 151C683.3 151 666.7 151 650 151C633.3 151 616.7 151 600 151C583.3 151 566.7 151 550 151C533.3 151 516.7 151 500 151C483.3 151 466.7 151 450 151C433.3 151 416.7 151 400 151C383.3 151 366.7 151 350 151C333.3 151 316.7 151 300 151C283.3 151 266.7 151 250 151C233.3 151 216.7 151 200 151C183.3 151 166.7 151 150 151C133.3 151 116.7 151 100 151C83.3 151 66.7 151 50 151C33.3 151 16.7 151 8.3 151L0 151Z" fill="#649efb"></path><path d="M0 103L8.3 97.3C16.7 91.7 33.3 80.3 50 81.2C66.7 82 83.3 95 100 102.5C116.7 110 133.3 112 150 112C166.7 112 183.3 110 200 106C216.7 102 233.3 96 250 92.7C266.7 89.3 283.3 88.7 300 87.7C316.7 86.7 333.3 85.3 350 85.8C366.7 86.3 383.3 88.7 400 92.5C416.7 96.3 433.3 101.7 450 101.7C466.7 101.7 483.3 96.3 500 92.5C516.7 88.7 533.3 86.3 550 85.8C566.7 85.3 583.3 86.7 600 85.8C616.7 85 633.3 82 650 82.5C666.7 83 683.3 87 700 91.2C716.7 95.3 733.3 99.7 750 96.3C766.7 93 783.3 82 800 79.8C816.7 77.7 833.3 84.3 850 85.3C866.7 86.3 883.3 81.7 891.7 79.3L900 77L900 151L891.7 151C883.3 151 866.7 151 850 151C833.3 151 816.7 151 800 151C783.3 151 766.7 151 750 151C733.3 151 716.7 151 700 151C683.3 151 666.7 151 650 151C633.3 151 616.7 151 600 151C583.3 151 566.7 151 550 151C533.3 151 516.7 151 500 151C483.3 151 466.7 151 450 151C433.3 151 416.7 151 400 151C383.3 151 366.7 151 350 151C333.3 151 316.7 151 300 151C283.3 151 266.7 151 250 151C233.3 151 216.7 151 200 151C183.3 151 166.7 151 150 151C133.3 151 116.7 151 100 151C83.3 151 66.7 151 50 151C33.3 151 16.7 151 8.3 151L0 151Z" fill="#5193e3"></path><path d="M0 80L8.3 84C16.7 88 33.3 96 50 96.3C66.7 96.7 83.3 89.3 100 89.8C116.7 90.3 133.3 98.7 150 104.2C166.7 109.7 183.3 112.3 200 112.5C216.7 112.7 233.3 110.3 250 107.5C266.7 104.7 283.3 101.3 300 101C316.7 100.7 333.3 103.3 350 103.5C366.7 103.7 383.3 101.3 400 101.2C416.7 101 433.3 103 450 106.2C466.7 109.3 483.3 113.7 500 117C516.7 120.3 533.3 122.7 550 123C566.7 123.3 583.3 121.7 600 119.8C616.7 118 633.3 116 650 116.5C666.7 117 683.3 120 700 118.8C716.7 117.7 733.3 112.3 750 108.8C766.7 105.3 783.3 103.7 800 99.5C816.7 95.3 833.3 88.7 850 85.7C866.7 82.7 883.3 83.3 891.7 83.7L900 84L900 151L891.7 151C883.3 151 866.7 151 850 151C833.3 151 816.7 151 800 151C783.3 151 766.7 151 750 151C733.3 151 716.7 151 700 151C683.3 151 666.7 151 650 151C633.3 151 616.7 151 600 151C583.3 151 566.7 151 550 151C533.3 151 516.7 151 500 151C483.3 151 466.7 151 450 151C433.3 151 416.7 151 400 151C383.3 151 366.7 151 350 151C333.3 151 316.7 151 300 151C283.3 151 266.7 151 250 151C233.3 151 216.7 151 200 151C183.3 151 166.7 151 150 151C133.3 151 116.7 151 100 151C83.3 151 66.7 151 50 151C33.3 151 16.7 151 8.3 151L0 151Z" fill="#4387ca"></path><path d="M0 128L8.3 126.3C16.7 124.7 33.3 121.3 50 121.7C66.7 122 83.3 126 100 122.8C116.7 119.7 133.3 109.3 150 107.2C166.7 105 183.3 111 200 113.8C216.7 116.7 233.3 116.3 250 115.8C266.7 115.3 283.3 114.7 300 112.3C316.7 110 333.3 106 350 103.7C366.7 101.3 383.3 100.7 400 106.2C416.7 111.7 433.3 123.3 450 123.2C466.7 123 483.3 111 500 107.8C516.7 104.7 533.3 110.3 550 112.3C566.7 114.3 583.3 112.7 600 113.7C616.7 114.7 633.3 118.3 650 117.5C666.7 116.7 683.3 111.3 700 109.5C716.7 107.7 733.3 109.3 750 111C766.7 112.7 783.3 114.3 800 113C816.7 111.7 833.3 107.3 850 105.2C866.7 103 883.3 103 891.7 103L900 103L900 151L891.7 151C883.3 151 866.7 151 850 151C833.3 151 816.7 151 800 151C783.3 151 766.7 151 750 151C733.3 151 716.7 151 700 151C683.3 151 666.7 151 650 151C633.3 151 616.7 151 600 151C583.3 151 566.7 151 550 151C533.3 151 516.7 151 500 151C483.3 151 466.7 151 450 151C433.3 151 416.7 151 400 151C383.3 151 366.7 151 350 151C333.3 151 316.7 151 300 151C283.3 151 266.7 151 250 151C233.3 151 216.7 151 200 151C183.3 151 166.7 151 150 151C133.3 151 116.7 151 100 151C83.3 151 66.7 151 50 151C33.3 151 16.7 151 8.3 151L0 151Z" fill="#397bb2"></path><path d="M0 141L8.3 139.7C16.7 138.3 33.3 135.7 50 135.3C66.7 135 83.3 137 100 135.7C116.7 134.3 133.3 129.7 150 130.3C166.7 131 183.3 137 200 136.3C216.7 135.7 233.3 128.3 250 127.8C266.7 127.3 283.3 133.7 300 134.5C316.7 135.3 333.3 130.7 350 129.8C366.7 129 383.3 132 400 132C416.7 132 433.3 129 450 126.3C466.7 123.7 483.3 121.3 500 121C516.7 120.7 533.3 122.3 550 124.3C566.7 126.3 583.3 128.7 600 128.2C616.7 127.7 633.3 124.3 650 122.3C666.7 120.3 683.3 119.7 700 122C716.7 124.3 733.3 129.7 750 130.3C766.7 131 783.3 127 800 123.8C816.7 120.7 833.3 118.3 850 120.8C866.7 123.3 883.3 130.7 891.7 134.3L900 138L900 151L891.7 151C883.3 151 866.7 151 850 151C833.3 151 816.7 151 800 151C783.3 151 766.7 151 750 151C733.3 151 716.7 151 700 151C683.3 151 666.7 151 650 151C633.3 151 616.7 151 600 151C583.3 151 566.7 151 550 151C533.3 151 516.7 151 500 151C483.3 151 466.7 151 450 151C433.3 151 416.7 151 400 151C383.3 151 366.7 151 350 151C333.3 151 316.7 151 300 151C283.3 151 266.7 151 250 151C233.3 151 216.7 151 200 151C183.3 151 166.7 151 150 151C133.3 151 116.7 151 100 151C83.3 151 66.7 151 50 151C33.3 151 16.7 151 8.3 151L0 151Z" fill="#346f9a"></path></svg>
