<svg id="visual" viewBox="0 0 900 50" width="900" height="50" xmlns="http://www.w3.org/2000/svg" xmlns:xlink="http://www.w3.org/1999/xlink" version="1.1"><rect x="0" y="0" width="900" height="50" fill="#1c1c1c"></rect><path d="M0 28L7.2 26.5C14.3 25 28.7 22 43 21.5C57.3 21 71.7 23 86 24.3C100.3 25.7 114.7 26.3 128.8 26.2C143 26 157 25 171.2 25.5C185.3 26 199.7 28 214 29.3C228.3 30.7 242.7 31.3 257 30.8C271.3 30.3 285.7 28.7 300 28.2C314.3 27.7 328.7 28.3 343 29.3C357.3 30.3 371.7 31.7 386 31.5C400.3 31.3 414.7 29.7 428.8 27.7C443 25.7 457 23.3 471.2 22.2C485.3 21 499.7 21 514 19C528.3 17 542.7 13 557 11.7C571.3 10.3 585.7 11.7 600 15.2C614.3 18.7 628.7 24.3 643 24.5C657.3 24.7 671.7 19.3 686 20C700.3 20.7 714.7 27.3 728.8 27.3C743 27.3 757 20.7 771.2 18C785.3 15.3 799.7 16.7 814 18.2C828.3 19.7 842.7 21.3 857 22.8C871.3 24.3 885.7 25.7 892.8 26.3L900 27L900 51L892.8 51C885.7 51 871.3 51 857 51C842.7 51 828.3 51 814 51C799.7 51 785.3 51 771.2 51C757 51 743 51 728.8 51C714.7 51 700.3 51 686 51C671.7 51 657.3 51 643 51C628.7 51 614.3 51 600 51C585.7 51 571.3 51 557 51C542.7 51 528.3 51 514 51C499.7 51 485.3 51 471.2 51C457 51 443 51 428.8 51C414.7 51 400.3 51 386 51C371.7 51 357.3 51 343 51C328.7 51 314.3 51 300 51C285.7 51 271.3 51 257 51C242.7 51 228.3 51 214 51C199.7 51 185.3 51 171.2 51C157 51 143 51 128.8 51C114.7 51 100.3 51 86 51C71.7 51 57.3 51 43 51C28.7 51 14.3 51 7.2 51L0 51Z" fill="#649efb"></path><path d="M0 37L7.2 36.7C14.3 36.3 28.7 35.7 43 35C57.3 34.3 71.7 33.7 86 30.8C100.3 28 114.7 23 128.8 23.5C143 24 157 30 171.2 32.3C185.3 34.7 199.7 33.3 214 30.7C228.3 28 242.7 24 257 21.3C271.3 18.7 285.7 17.3 300 18.2C314.3 19 328.7 22 343 24C357.3 26 371.7 27 386 26C400.3 25 414.7 22 428.8 21.5C443 21 457 23 471.2 24.8C485.3 26.7 499.7 28.3 514 29.8C528.3 31.3 542.7 32.7 557 32.8C571.3 33 585.7 32 600 32.3C614.3 32.7 628.7 34.3 643 33.2C657.3 32 671.7 28 686 24.8C700.3 21.7 714.7 19.3 728.8 20.2C743 21 757 25 771.2 28C785.3 31 799.7 33 814 31.2C828.3 29.3 842.7 23.7 857 20.5C871.3 17.3 885.7 16.7 892.8 16.3L900 16L900 51L892.8 51C885.7 51 871.3 51 857 51C842.7 51 828.3 51 814 51C799.7 51 785.3 51 771.2 51C757 51 743 51 728.8 51C714.7 51 700.3 51 686 51C671.7 51 657.3 51 643 51C628.7 51 614.3 51 600 51C585.7 51 571.3 51 557 51C542.7 51 528.3 51 514 51C499.7 51 485.3 51 471.2 51C457 51 443 51 428.8 51C414.7 51 400.3 51 386 51C371.7 51 357.3 51 343 51C328.7 51 314.3 51 300 51C285.7 51 271.3 51 257 51C242.7 51 228.3 51 214 51C199.7 51 185.3 51 171.2 51C157 51 143 51 128.8 51C114.7 51 100.3 51 86 51C71.7 51 57.3 51 43 51C28.7 51 14.3 51 7.2 51L0 51Z" fill="#5595e8"></path><path d="M0 23L7.2 25C14.3 27 28.7 31 43 32.7C57.3 34.3 71.7 33.7 86 32C100.3 30.3 114.7 27.7 128.8 28.2C143 28.7 157 32.3 171.2 33.3C185.3 34.3 199.7 32.7 214 31.8C228.3 31 242.7 31 257 29.7C271.3 28.3 285.7 25.7 300 25C314.3 24.3 328.7 25.7 343 27.8C357.3 30 371.7 33 386 35C400.3 37 414.7 38 428.8 36.3C443 34.7 457 30.3 471.2 29.7C485.3 29 499.7 32 514 33.8C528.3 35.7 542.7 36.3 557 36.8C571.3 37.3 585.7 37.7 600 35.8C614.3 34 628.7 30 643 28.8C657.3 27.7 671.7 29.3 686 28.5C700.3 27.7 714.7 24.3 728.8 23.5C743 22.7 757 24.3 771.2 25.3C785.3 26.3 799.7 26.7 814 28.3C828.3 30 842.7 33 857 32.3C871.3 31.7 885.7 27.3 892.8 25.2L900 23L900 51L892.8 51C885.7 51 871.3 51 857 51C842.7 51 828.3 51 814 51C799.7 51 785.3 51 771.2 51C757 51 743 51 728.8 51C714.7 51 700.3 51 686 51C671.7 51 657.3 51 643 51C628.7 51 614.3 51 600 51C585.7 51 571.3 51 557 51C542.7 51 528.3 51 514 51C499.7 51 485.3 51 471.2 51C457 51 443 51 428.8 51C414.7 51 400.3 51 386 51C371.7 51 357.3 51 343 51C328.7 51 314.3 51 300 51C285.7 51 271.3 51 257 51C242.7 51 228.3 51 214 51C199.7 51 185.3 51 171.2 51C157 51 143 51 128.8 51C114.7 51 100.3 51 86 51C71.7 51 57.3 51 43 51C28.7 51 14.3 51 7.2 51L0 51Z" fill="#488cd4"></path><path d="M0 29L7.2 30C14.3 31 28.7 33 43 33C57.3 33 71.7 31 86 30.3C100.3 29.7 114.7 30.3 128.8 31.7C143 33 157 35 171.2 35.2C185.3 35.3 199.7 33.7 214 34C228.3 34.3 242.7 36.7 257 38C271.3 39.3 285.7 39.7 300 38C314.3 36.3 328.7 32.7 343 30.5C357.3 28.3 371.7 27.7 386 29.5C400.3 31.3 414.7 35.7 428.8 37.8C443 40 457 40 471.2 38.5C485.3 37 499.7 34 514 32.2C528.3 30.3 542.7 29.7 557 29.8C571.3 30 585.7 31 600 32.8C614.3 34.7 628.7 37.3 643 38.5C657.3 39.7 671.7 39.3 686 37.2C700.3 35 714.7 31 728.8 31C743 31 757 35 771.2 36.2C785.3 37.3 799.7 35.7 814 34.3C828.3 33 842.7 32 857 33C871.3 34 885.7 37 892.8 38.5L900 40L900 51L892.8 51C885.7 51 871.3 51 857 51C842.7 51 828.3 51 814 51C799.7 51 785.3 51 771.2 51C757 51 743 51 728.8 51C714.7 51 700.3 51 686 51C671.7 51 657.3 51 643 51C628.7 51 614.3 51 600 51C585.7 51 571.3 51 557 51C542.7 51 528.3 51 514 51C499.7 51 485.3 51 471.2 51C457 51 443 51 428.8 51C414.7 51 400.3 51 386 51C371.7 51 357.3 51 343 51C328.7 51 314.3 51 300 51C285.7 51 271.3 51 257 51C242.7 51 228.3 51 214 51C199.7 51 185.3 51 171.2 51C157 51 143 51 128.8 51C114.7 51 100.3 51 86 51C71.7 51 57.3 51 43 51C28.7 51 14.3 51 7.2 51L0 51Z" fill="#3e82c0"></path><path d="M0 33L7.2 34.2C14.3 35.3 28.7 37.7 43 39.5C57.3 41.3 71.7 42.7 86 41.7C100.3 40.7 114.7 37.3 128.8 35.7C143 34 157 34 171.2 34.8C185.3 35.7 199.7 37.3 214 38.5C228.3 39.7 242.7 40.3 257 39.8C271.3 39.3 285.7 37.7 300 37.3C314.3 37 328.7 38 343 39.3C357.3 40.7 371.7 42.3 386 42.7C400.3 43 414.7 42 428.8 41.5C443 41 457 41 471.2 40.8C485.3 40.7 499.7 40.3 514 40.8C528.3 41.3 542.7 42.7 557 42.8C571.3 43 585.7 42 600 41.5C614.3 41 628.7 41 643 41.5C657.3 42 671.7 43 686 43.3C700.3 43.7 714.7 43.3 728.8 42.5C743 41.7 757 40.3 771.2 39C785.3 37.7 799.7 36.3 814 37.2C828.3 38 842.7 41 857 42.3C871.3 43.7 885.7 43.3 892.8 43.2L900 43L900 51L892.8 51C885.7 51 871.3 51 857 51C842.7 51 828.3 51 814 51C799.7 51 785.3 51 771.2 51C757 51 743 51 728.8 51C714.7 51 700.3 51 686 51C671.7 51 657.3 51 643 51C628.7 51 614.3 51 600 51C585.7 51 571.3 51 557 51C542.7 51 528.3 51 514 51C499.7 51 485.3 51 471.2 51C457 51 443 51 428.8 51C414.7 51 400.3 51 386 51C371.7 51 357.3 51 343 51C328.7 51 314.3 51 300 51C285.7 51 271.3 51 257 51C242.7 51 228.3 51 214 51C199.7 51 185.3 51 171.2 51C157 51 143 51 128.8 51C114.7 51 100.3 51 86 51C71.7 51 57.3 51 43 51C28.7 51 14.3 51 7.2 51L0 51Z" fill="#3879ad"></path><path d="M0 46L7.2 44.8C14.3 43.7 28.7 41.3 43 41.2C57.3 41 71.7 43 86 43.8C100.3 44.7 114.7 44.3 128.8 43.5C143 42.7 157 41.3 171.2 41.5C185.3 41.7 199.7 43.3 214 43.2C228.3 43 242.7 41 257 41C271.3 41 285.7 43 300 43C314.3 43 328.7 41 343 40.8C357.3 40.7 371.7 42.3 386 43.5C400.3 44.7 414.7 45.3 428.8 44.5C443 43.7 457 41.3 471.2 40.2C485.3 39 499.7 39 514 40C528.3 41 542.7 43 557 43.5C571.3 44 585.7 43 600 43C614.3 43 628.7 44 643 43.8C657.3 43.7 671.7 42.3 686 42.3C700.3 42.3 714.7 43.7 728.8 44C743 44.3 757 43.7 771.2 43.5C785.3 43.3 799.7 43.7 814 44C828.3 44.3 842.7 44.7 857 44.2C871.3 43.7 885.7 42.3 892.8 41.7L900 41L900 51L892.8 51C885.7 51 871.3 51 857 51C842.7 51 828.3 51 814 51C799.7 51 785.3 51 771.2 51C757 51 743 51 728.8 51C714.7 51 700.3 51 686 51C671.7 51 657.3 51 643 51C628.7 51 614.3 51 600 51C585.7 51 571.3 51 557 51C542.7 51 528.3 51 514 51C499.7 51 485.3 51 471.2 51C457 51 443 51 428.8 51C414.7 51 400.3 51 386 51C371.7 51 357.3 51 343 51C328.7 51 314.3 51 300 51C285.7 51 271.3 51 257 51C242.7 51 228.3 51 214 51C199.7 51 185.3 51 171.2 51C157 51 143 51 128.8 51C114.7 51 100.3 51 86 51C71.7 51 57.3 51 43 51C28.7 51 14.3 51 7.2 51L0 51Z" fill="#346f9a"></path></svg>