<svg id="visual" viewBox="0 0 900 50" width="900" height="50" xmlns="http://www.w3.org/2000/svg" xmlns:xlink="http://www.w3.org/1999/xlink" version="1.1"><rect x="0" y="0" width="900" height="50" fill="#1c1c1c"></rect><path d="M0 20L7.2 21.5C14.3 23 28.7 26 43 26.5C57.3 27 71.7 25 86 23.7C100.3 22.3 114.7 21.7 128.8 21.8C143 22 157 23 171.2 22.5C185.3 22 199.7 20 214 18.7C228.3 17.3 242.7 16.7 257 17.2C271.3 17.7 285.7 19.3 300 19.8C314.3 20.3 328.7 19.7 343 18.7C357.3 17.7 371.7 16.3 386 16.5C400.3 16.7 414.7 18.3 428.8 20.3C443 22.3 457 24.7 471.2 25.8C485.3 27 499.7 27 514 29C528.3 31 542.7 35 557 36.3C571.3 37.7 585.7 36.3 600 32.8C614.3 29.3 628.7 23.7 643 23.5C657.3 23.3 671.7 28.7 686 28C700.3 27.3 714.7 20.7 728.8 20.7C743 20.7 757 27.3 771.2 30C785.3 32.7 799.7 31.3 814 29.8C828.3 28.3 842.7 26.7 857 25.2C871.3 23.7 885.7 22.3 892.8 21.7L900 21L900 0L892.8 0C885.7 0 871.3 0 857 0C842.7 0 828.3 0 814 0C799.7 0 785.3 0 771.2 0C757 0 743 0 728.8 0C714.7 0 700.3 0 686 0C671.7 0 657.3 0 643 0C628.7 0 614.3 0 600 0C585.7 0 571.3 0 557 0C542.7 0 528.3 0 514 0C499.7 0 485.3 0 471.2 0C457 0 443 0 428.8 0C414.7 0 400.3 0 386 0C371.7 0 357.3 0 343 0C328.7 0 314.3 0 300 0C285.7 0 271.3 0 257 0C242.7 0 228.3 0 214 0C199.7 0 185.3 0 171.2 0C157 0 143 0 128.8 0C114.7 0 100.3 0 86 0C71.7 0 57.3 0 43 0C28.7 0 14.3 0 7.2 0L0 0Z" fill="#649efb"></path><path d="M0 11L7.2 11.3C14.3 11.7 28.7 12.3 43 13C57.3 13.7 71.7 14.3 86 17.2C100.3 20 114.7 25 128.8 24.5C143 24 157 18 171.2 15.7C185.3 13.3 199.7 14.7 214 17.3C228.3 20 242.7 24 257 26.7C271.3 29.3 285.7 30.7 300 29.8C314.3 29 328.7 26 343 24C357.3 22 371.7 21 386 22C400.3 23 414.7 26 428.8 26.5C443 27 457 25 471.2 23.2C485.3 21.3 499.7 19.7 514 18.2C528.3 16.7 542.7 15.3 557 15.2C571.3 15 585.7 16 600 15.7C614.3 15.3 628.7 13.7 643 14.8C657.3 16 671.7 20 686 23.2C700.3 26.3 714.7 28.7 728.8 27.8C743 27 757 23 771.2 20C785.3 17 799.7 15 814 16.8C828.3 18.7 842.7 24.3 857 27.5C871.3 30.7 885.7 31.3 892.8 31.7L900 32L900 0L892.8 0C885.7 0 871.3 0 857 0C842.7 0 828.3 0 814 0C799.7 0 785.3 0 771.2 0C757 0 743 0 728.8 0C714.7 0 700.3 0 686 0C671.7 0 657.3 0 643 0C628.7 0 614.3 0 600 0C585.7 0 571.3 0 557 0C542.7 0 528.3 0 514 0C499.7 0 485.3 0 471.2 0C457 0 443 0 428.8 0C414.7 0 400.3 0 386 0C371.7 0 357.3 0 343 0C328.7 0 314.3 0 300 0C285.7 0 271.3 0 257 0C242.7 0 228.3 0 214 0C199.7 0 185.3 0 171.2 0C157 0 143 0 128.8 0C114.7 0 100.3 0 86 0C71.7 0 57.3 0 43 0C28.7 0 14.3 0 7.2 0L0 0Z" fill="#5595e8"></path><path d="M0 25L7.2 23C14.3 21 28.7 17 43 15.3C57.3 13.7 71.7 14.3 86 16C100.3 17.7 114.7 20.3 128.8 19.8C143 19.3 157 15.7 171.2 14.7C185.3 13.7 199.7 15.3 214 16.2C228.3 17 242.7 17 257 18.3C271.3 19.7 285.7 22.3 300 23C314.3 23.7 328.7 22.3 343 20.2C357.3 18 371.7 15 386 13C400.3 11 414.7 10 428.8 11.7C443 13.3 457 17.7 471.2 18.3C485.3 19 499.7 16 514 14.2C528.3 12.3 542.7 11.7 557 11.2C571.3 10.7 585.7 10.3 600 12.2C614.3 14 628.7 18 643 19.2C657.3 20.3 671.7 18.7 686 19.5C700.3 20.3 714.7 23.7 728.8 24.5C743 25.3 757 23.7 771.2 22.7C785.3 21.7 799.7 21.3 814 19.7C828.3 18 842.7 15 857 15.7C871.3 16.3 885.7 20.7 892.8 22.8L900 25L900 0L892.8 0C885.7 0 871.3 0 857 0C842.7 0 828.3 0 814 0C799.7 0 785.3 0 771.2 0C757 0 743 0 728.8 0C714.7 0 700.3 0 686 0C671.7 0 657.3 0 643 0C628.7 0 614.3 0 600 0C585.7 0 571.3 0 557 0C542.7 0 528.3 0 514 0C499.7 0 485.3 0 471.2 0C457 0 443 0 428.8 0C414.7 0 400.3 0 386 0C371.7 0 357.3 0 343 0C328.7 0 314.3 0 300 0C285.7 0 271.3 0 257 0C242.7 0 228.3 0 214 0C199.7 0 185.3 0 171.2 0C157 0 143 0 128.8 0C114.7 0 100.3 0 86 0C71.7 0 57.3 0 43 0C28.7 0 14.3 0 7.2 0L0 0Z" fill="#488cd4"></path><path d="M0 19L7.2 18C14.3 17 28.7 15 43 15C57.3 15 71.7 17 86 17.7C100.3 18.3 114.7 17.7 128.8 16.3C143 15 157 13 171.2 12.8C185.3 12.7 199.7 14.3 214 14C228.3 13.7 242.7 11.3 257 10C271.3 8.7 285.7 8.3 300 10C314.3 11.7 328.7 15.3 343 17.5C357.3 19.7 371.7 20.3 386 18.5C400.3 16.7 414.7 12.3 428.8 10.2C443 8 457 8 471.2 9.5C485.3 11 499.7 14 514 15.8C528.3 17.7 542.7 18.3 557 18.2C571.3 18 585.7 17 600 15.2C614.3 13.3 628.7 10.7 643 9.5C657.3 8.3 671.7 8.7 686 10.8C700.3 13 714.7 17 728.8 17C743 17 757 13 771.2 11.8C785.3 10.7 799.7 12.3 814 13.7C828.3 15 842.7 16 857 15C871.3 14 885.7 11 892.8 9.5L900 8L900 0L892.8 0C885.7 0 871.3 0 857 0C842.7 0 828.3 0 814 0C799.7 0 785.3 0 771.2 0C757 0 743 0 728.8 0C714.7 0 700.3 0 686 0C671.7 0 657.3 0 643 0C628.7 0 614.3 0 600 0C585.7 0 571.3 0 557 0C542.7 0 528.3 0 514 0C499.7 0 485.3 0 471.2 0C457 0 443 0 428.8 0C414.7 0 400.3 0 386 0C371.7 0 357.3 0 343 0C328.7 0 314.3 0 300 0C285.7 0 271.3 0 257 0C242.7 0 228.3 0 214 0C199.7 0 185.3 0 171.2 0C157 0 143 0 128.8 0C114.7 0 100.3 0 86 0C71.7 0 57.3 0 43 0C28.7 0 14.3 0 7.2 0L0 0Z" fill="#3e82c0"></path><path d="M0 15L7.2 13.8C14.3 12.7 28.7 10.3 43 8.5C57.3 6.7 71.7 5.3 86 6.3C100.3 7.3 114.7 10.7 128.8 12.3C143 14 157 14 171.2 13.2C185.3 12.3 199.7 10.7 214 9.5C228.3 8.3 242.7 7.7 257 8.2C271.3 8.7 285.7 10.3 300 10.7C314.3 11 328.7 10 343 8.7C357.3 7.3 371.7 5.7 386 5.3C400.3 5 414.7 6 428.8 6.5C443 7 457 7 471.2 7.2C485.3 7.3 499.7 7.7 514 7.2C528.3 6.7 542.7 5.3 557 5.2C571.3 5 585.7 6 600 6.5C614.3 7 628.7 7 643 6.5C657.3 6 671.7 5 686 4.7C700.3 4.3 714.7 4.7 728.8 5.5C743 6.3 757 7.7 771.2 9C785.3 10.3 799.7 11.7 814 10.8C828.3 10 842.7 7 857 5.7C871.3 4.3 885.7 4.7 892.8 4.8L900 5L900 0L892.8 0C885.7 0 871.3 0 857 0C842.7 0 828.3 0 814 0C799.7 0 785.3 0 771.2 0C757 0 743 0 728.8 0C714.7 0 700.3 0 686 0C671.7 0 657.3 0 643 0C628.7 0 614.3 0 600 0C585.7 0 571.3 0 557 0C542.7 0 528.3 0 514 0C499.7 0 485.3 0 471.2 0C457 0 443 0 428.8 0C414.7 0 400.3 0 386 0C371.7 0 357.3 0 343 0C328.7 0 314.3 0 300 0C285.7 0 271.3 0 257 0C242.7 0 228.3 0 214 0C199.7 0 185.3 0 171.2 0C157 0 143 0 128.8 0C114.7 0 100.3 0 86 0C71.7 0 57.3 0 43 0C28.7 0 14.3 0 7.2 0L0 0Z" fill="#3879ad"></path><path d="M0 2L7.2 3.2C14.3 4.3 28.7 6.7 43 6.8C57.3 7 71.7 5 86 4.2C100.3 3.3 114.7 3.7 128.8 4.5C143 5.3 157 6.7 171.2 6.5C185.3 6.3 199.7 4.7 214 4.8C228.3 5 242.7 7 257 7C271.3 7 285.7 5 300 5C314.3 5 328.7 7 343 7.2C357.3 7.3 371.7 5.7 386 4.5C400.3 3.3 414.7 2.7 428.8 3.5C443 4.3 457 6.7 471.2 7.8C485.3 9 499.7 9 514 8C528.3 7 542.7 5 557 4.5C571.3 4 585.7 5 600 5C614.3 5 628.7 4 643 4.2C657.3 4.3 671.7 5.7 686 5.7C700.3 5.7 714.7 4.3 728.8 4C743 3.7 757 4.3 771.2 4.5C785.3 4.7 799.7 4.3 814 4C828.3 3.7 842.7 3.3 857 3.8C871.3 4.3 885.7 5.7 892.8 6.3L900 7L900 0L892.8 0C885.7 0 871.3 0 857 0C842.7 0 828.3 0 814 0C799.7 0 785.3 0 771.2 0C757 0 743 0 728.8 0C714.7 0 700.3 0 686 0C671.7 0 657.3 0 643 0C628.7 0 614.3 0 600 0C585.7 0 571.3 0 557 0C542.7 0 528.3 0 514 0C499.7 0 485.3 0 471.2 0C457 0 443 0 428.8 0C414.7 0 400.3 0 386 0C371.7 0 357.3 0 343 0C328.7 0 314.3 0 300 0C285.7 0 271.3 0 257 0C242.7 0 228.3 0 214 0C199.7 0 185.3 0 171.2 0C157 0 143 0 128.8 0C114.7 0 100.3 0 86 0C71.7 0 57.3 0 43 0C28.7 0 14.3 0 7.2 0L0 0Z" fill="#346f9a"></path></svg>